<svg width="300" height="80" viewBox="0 0 300 80" fill="none" xmlns="http://www.w3.org/2000/svg">
        
    <defs>
      <linearGradient id="oe_gradient" x1="0" y1="0" x2="40" y2="40" gradientUnits="userSpaceOnUse">
        <stop stopColor="#4F46E5" />
        <stop offset="1" stopColor="#0EA5E9" />
      </linearGradient>
      <style>
        @import url('https://fonts.cdnfonts.com/css/sf-pro-display');
        .text-brand { font-family: 'SF Pro Display', -apple-system, BlinkMacSystemFont, sans-serif; }
      </style>
    </defs>
  <g transform="translate(0, 12) scale(1.4)">
    <circle cx="20" cy="20" r="19" stroke="#FFFFFF" stroke-width="1.5" stroke-opacity="0.2" />
    <circle cx="20" cy="20" r="16" fill="url(#oe_gradient)" />
    <g transform="translate(0, 1)">
         <path d="M15 11C15 10.4477 15.4477 10 16 10H18C19.1046 10 20 10.8954 20 12V28C20 29.1046 19.1046 30 18 30H16C15.4477 30 15 29.5523 15 29V11Z" fill="white" />
         <path d="M11.2929 14.2929C10.9024 14.6834 10.9024 15.3166 11.2929 15.7071C11.6834 16.0976 12.3166 16.0976 12.7071 15.7071L16 12.4142V10H13.5858L11.2929 12.2929V14.2929Z" fill="white" />
         <path d="M24 14C25.6569 14 27 15.3431 27 17V23C27 24.6569 25.6569 26 24 26" stroke="white" stroke-width="2.5" stroke-linecap="round" />
         <circle cx="28" cy="12" r="2" fill="#BAE6FD" />
    </g>
  </g>
        <g transform="translate(70, 0)">
           <text x="0" y="48" class="text-brand" font-family="'SF Pro Display', -apple-system, sans-serif" font-size="40" fill="#FFFFFF" letter-spacing="-0.5">
              <tspan font-weight="500">one</tspan><tspan font-weight="100">edge</tspan>
           </text>
           <text x="2" y="66" class="text-brand" font-family="'SF Pro Display', -apple-system, sans-serif" font-weight="700" font-size="10" fill="#94A3B8" letter-spacing="2">BY ONEORIGIN</text>
        </g>
    </svg>